<svg width="30" height="29" viewBox="0 0 30 29" fill="none" xmlns="http://www.w3.org/2000/svg">
<path fill-rule="evenodd" clip-rule="evenodd" d="M26.4685 9.5716H28.5394C28.7638 9.5708 28.9853 9.62191 29.1867 9.72092C29.3881 9.81993 29.5638 9.96418 29.7002 10.1424C29.8366 10.3206 29.93 10.5279 29.973 10.7481C30.016 10.9684 30.0075 11.1956 29.9481 11.412L25.8662 26.3789C25.5192 27.6476 24.3612 28.5299 23.0516 28.5299H7.77852C7.13902 28.5289 6.51749 28.3183 6.00913 27.9303C5.50077 27.5423 5.13362 26.9984 4.96394 26.3818L0.882067 11.4135C0.823398 11.1971 0.815336 10.9702 0.858506 10.7502C0.901677 10.5303 0.99492 10.3232 1.13101 10.1451C1.26709 9.96701 1.44237 9.82263 1.64325 9.72317C1.84412 9.62371 2.06521 9.57185 2.28936 9.5716H4.36019L9.77353 0.0982666L12.3067 1.54493L7.71873 9.5716H23.11L18.5235 1.54493L21.0552 0.0982666L26.4685 9.5716ZM7.77852 25.6133H23.0502L26.6289 12.4883H4.19978L7.77852 25.6133ZM13.9562 15.4049H11.0395V22.6966H13.9562V15.4049ZM19.7895 15.4049H16.8728V22.6966H19.7895V15.4049Z" fill="white"/>
</svg>
