<svg width="134" height="23" viewBox="0 0 134 23" fill="none" xmlns="http://www.w3.org/2000/svg">
<path d="M0.24 1.76191H9.584C12.3573 1.76191 14.3627 2.10324 15.6 2.78591C16.8373 3.44724 17.456 4.56724 17.456 6.14591V9.79391C17.456 11.0099 17.0187 11.9699 16.144 12.6739C15.2907 13.3566 14.1493 13.7939 12.72 13.9859L18.736 22.5299H12.976L7.536 14.3699H5.232V22.5299H0.24V1.76191ZM9.52 11.0739C10.6933 11.0739 11.4933 10.9246 11.92 10.6259C12.3467 10.3059 12.56 9.69791 12.56 8.80191V7.32991C12.56 6.56191 12.3253 6.03924 11.856 5.76191C11.408 5.46324 10.6293 5.31391 9.52 5.31391H5.232V11.0739H9.52ZM28.847 22.8499C27.887 22.8499 27.0977 22.8179 26.479 22.7539C25.8603 22.6899 25.199 22.5619 24.495 22.3699C23.727 22.1566 23.1083 21.8579 22.639 21.4739C22.1697 21.0686 21.775 20.5032 21.455 19.7779C21.135 19.0739 20.975 18.2206 20.975 17.2179V12.6419C20.975 11.6179 21.135 10.7219 21.455 9.95391C21.775 9.18591 22.191 8.58857 22.703 8.16191C23.151 7.79924 23.7377 7.50057 24.463 7.26591C25.2097 7.00991 25.935 6.84991 26.639 6.78591C27.4497 6.74324 28.1857 6.72191 28.847 6.72191C29.8283 6.72191 30.607 6.75391 31.183 6.81791C31.7803 6.86057 32.431 6.98857 33.135 7.20191C33.903 7.43657 34.5217 7.75657 34.991 8.16191C35.4817 8.56724 35.8977 9.14324 36.239 9.88991C36.559 10.6579 36.719 11.5752 36.719 12.6419V17.2179C36.719 18.1779 36.559 19.0206 36.239 19.7459C35.9403 20.4712 35.5457 21.0366 35.055 21.4419C34.6283 21.8046 34.0417 22.1032 33.295 22.3379C32.5697 22.5512 31.855 22.6899 31.151 22.7539C30.511 22.8179 29.743 22.8499 28.847 22.8499ZM28.847 19.9379C29.7217 19.9379 30.383 19.8739 30.831 19.7459C31.279 19.5966 31.5883 19.3726 31.759 19.0739C31.951 18.7752 32.047 18.3379 32.047 17.7619V11.9059C32.047 11.0526 31.823 10.4552 31.375 10.1139C30.927 9.77257 30.0843 9.60191 28.847 9.60191C27.6097 9.60191 26.767 9.77257 26.319 10.1139C25.871 10.4552 25.647 11.0526 25.647 11.9059V17.7619C25.647 18.3379 25.7323 18.7752 25.903 19.0739C26.095 19.3726 26.415 19.5966 26.863 19.7459C27.311 19.8739 27.9723 19.9379 28.847 19.9379ZM47.9125 22.8499C47.1018 22.8499 46.4618 22.8286 45.9925 22.7859C45.5232 22.7646 44.9472 22.7112 44.2645 22.6259C43.5818 22.5406 43.0165 22.3912 42.5685 22.1779C42.1418 21.9646 41.6938 21.6446 41.2245 21.2179C40.3498 20.4926 39.9125 19.2552 39.9125 17.5059V12.3539C39.9125 10.9459 40.2325 9.77257 40.8725 8.83391C41.1072 8.49257 41.4485 8.18324 41.8965 7.90591C42.3658 7.60724 42.8352 7.37257 43.3045 7.20191C43.6885 7.07391 44.2005 6.96724 44.8405 6.88191C45.4805 6.79657 46.0458 6.74324 46.5365 6.72191H48.2325C49.4272 6.72191 50.9952 6.91391 52.9365 7.29791V10.3699C50.7392 9.85791 49.0538 9.60191 47.8805 9.60191C45.7258 9.60191 44.6485 10.3272 44.6485 11.7779V17.4739C44.6485 19.1166 45.8325 19.9379 48.2005 19.9379C49.3525 19.9379 51.0058 19.7032 53.1605 19.2339V22.3059C51.2192 22.6686 49.4698 22.8499 47.9125 22.8499ZM55.798 0.129906H60.47V22.5299H55.798V0.129906ZM60.662 13.8259L65.75 7.04191H71.094L65.718 13.7939L71.542 22.5299H66.262L60.662 13.8259ZM79.9913 22.8499C78.0073 22.8499 75.5539 22.6579 72.6313 22.2739V18.4659C76.2579 19.0206 78.7326 19.2979 80.0553 19.2979C82.8286 19.2979 84.2153 18.5832 84.2153 17.1539V15.8099C84.2153 15.1272 84.0126 14.6046 83.6073 14.2419C83.2233 13.8792 82.5193 13.6979 81.4953 13.6979H79.0633C74.4979 13.6979 72.2153 11.8846 72.2153 8.25791V6.72191C72.2153 4.90857 72.9726 3.57524 74.4873 2.72191C76.0019 1.86857 78.4019 1.44191 81.6873 1.44191C83.3939 1.44191 85.5593 1.58057 88.1833 1.85791V5.56991C84.9619 5.18591 82.7433 4.99391 81.5273 4.99391C79.8419 4.99391 78.7113 5.13257 78.1353 5.40991C77.5166 5.70857 77.2073 6.17791 77.2073 6.81791V8.28991C77.2073 9.37791 78.1246 9.92191 79.9593 9.92191H82.4553C84.8233 9.92191 86.5406 10.3592 87.6073 11.2339C88.6739 12.1086 89.2073 13.4419 89.2073 15.2339V16.6099C89.2073 19.0846 88.3219 20.7592 86.5513 21.6339C85.6979 22.0819 84.7486 22.3912 83.7033 22.5619C82.6793 22.7539 81.4419 22.8499 79.9913 22.8499ZM100.23 22.8499C99.4402 22.8499 98.7788 22.8179 98.2455 22.7539C97.7122 22.6899 97.1788 22.5619 96.6455 22.3699C96.0482 22.1779 95.5575 21.9112 95.1735 21.5699C94.8108 21.2286 94.5122 20.7592 94.2775 20.1619C94.0215 19.5432 93.8935 18.8286 93.8935 18.0179V9.92191H90.7575V7.04191H93.8935V2.56191H98.5655V7.04191H102.822V9.92191H98.5655V17.2179C98.5655 17.9646 98.6295 18.5299 98.7575 18.9139C98.8855 19.2766 99.1308 19.5432 99.4935 19.7139C99.8562 19.8632 100.411 19.9379 101.158 19.9379C101.456 19.9379 102.011 19.8846 102.822 19.7779V22.6899C101.819 22.7966 100.955 22.8499 100.23 22.8499ZM109.901 22.8499C108.45 22.8499 107.362 22.7219 106.637 22.4659C105.933 22.1886 105.431 21.7086 105.133 21.0259C104.855 20.3219 104.717 19.2766 104.717 17.8899C104.717 16.6526 104.866 15.6819 105.165 14.9779C105.485 14.2739 105.986 13.7726 106.669 13.4739C107.373 13.1539 108.333 12.9939 109.549 12.9939H114.797V11.9379C114.797 11.2766 114.701 10.7859 114.509 10.4659C114.338 10.1459 114.007 9.92191 113.517 9.79391C113.047 9.66591 112.333 9.60191 111.373 9.60191C110.05 9.60191 108.237 9.72991 105.933 9.98591V7.04191C107.618 6.82857 109.591 6.72191 111.853 6.72191C113.837 6.72191 115.362 6.87124 116.429 7.16991C117.517 7.46857 118.295 7.98057 118.765 8.70591C119.234 9.43124 119.469 10.4872 119.469 11.8739V22.5299H114.893V21.1219C114.53 21.7406 114.039 22.1779 113.421 22.4339C112.802 22.7112 111.629 22.8499 109.901 22.8499ZM111.725 19.9379C112.663 19.9379 113.335 19.9059 113.741 19.8419C114.039 19.7992 114.242 19.7352 114.349 19.6499C114.477 19.5646 114.583 19.4259 114.669 19.2339C114.754 19.0846 114.797 18.8606 114.797 18.5619V15.5539H111.597C110.871 15.5539 110.359 15.6072 110.061 15.7139C109.762 15.7992 109.559 15.9912 109.453 16.2899C109.346 16.5672 109.293 17.0686 109.293 17.7939C109.293 18.4979 109.346 18.9886 109.453 19.2659C109.559 19.5432 109.762 19.7246 110.061 19.8099C110.381 19.8952 110.935 19.9379 111.725 19.9379ZM123.579 7.04191H128.027V9.76191C128.027 9.27124 128.23 8.79124 128.635 8.32191C129.041 7.85257 129.553 7.46857 130.171 7.16991C130.811 6.87124 131.441 6.72191 132.059 6.72191H133.723V10.5939H132.123C130.801 10.5939 129.819 10.7966 129.179 11.2019C128.561 11.6072 128.251 12.2792 128.251 13.2179V22.5299H123.579V7.04191Z" fill="white"/>
</svg>
