<svg width="179" height="179" viewBox="0 0 179 179" fill="none" xmlns="http://www.w3.org/2000/svg">
<path d="M104.553 12.4254L104.145 16.1273C104.096 16.7067 103.901 17.2647 103.579 17.7504C103.256 18.2361 102.817 18.6341 102.3 18.9081C101.772 19.1608 101.204 19.3232 100.622 19.3884C100.017 19.4763 99.4055 19.5117 98.7945 19.4942C98.2461 19.4722 97.6156 19.4237 96.9096 19.3466C94.8995 19.1223 92.913 18.7234 90.9731 18.1545L91.1951 16.048C93.4566 16.7722 95.3341 17.2129 96.8275 17.37C97.4002 17.4339 97.8753 17.4692 98.2505 17.4824C98.71 17.4892 99.1694 17.4619 99.6248 17.4009C100.095 17.3634 100.542 17.1799 100.901 16.8765C101.225 16.5697 101.421 16.1539 101.452 15.7108L101.794 12.6083C101.923 11.4331 100.706 10.7052 98.144 10.4247L94.2699 10.0038L94.4653 8.24101L97.851 8.60899C100.432 8.8881 101.79 8.42023 101.925 7.20537L102.276 4.11609C102.384 3.12893 101.194 2.5002 98.7079 2.22991C97.8864 2.14177 96.7616 2.07273 95.3333 2.02278C93.908 1.9743 93.1754 1.94566 93.1355 1.94345L93.3575 0.0065918C95.7078 0.107952 97.5527 0.231347 98.8922 0.376777C100.978 0.601533 102.535 1.0011 103.565 1.57547C104.596 2.14985 105.047 3.01508 104.92 4.17118L104.531 7.61081C104.508 7.90233 104.413 8.18369 104.254 8.43003C104.095 8.67638 103.878 8.88011 103.621 9.02325C103.045 9.35074 102.397 9.53308 101.734 9.55429L101.721 9.66887C102.151 9.79226 102.515 9.91346 102.813 10.0324C103.135 10.1637 103.443 10.3269 103.732 10.5194C104.034 10.7117 104.271 10.9886 104.414 11.3149C104.556 11.6669 104.604 12.0495 104.553 12.4254Z" fill="white"/>
<path d="M122.601 25.9834L119.872 24.9963L119.806 18.9675L112.257 16.2506L108.328 20.8405L105.723 19.9018L119.117 4.95117L122.154 6.05291L122.601 25.9834ZM119.803 16.9293L119.706 7.96554L119.464 7.8774L113.591 14.6928L119.803 16.9293Z" fill="white"/>
<path d="M139.713 38.2702L124.363 26.5917L135.752 11.8284L137.972 13.5184L127.76 26.7526L133.144 30.8466L143.356 17.6125L145.576 19.3026L135.364 32.5367L140.75 36.6308L150.962 23.3967L153.182 25.0845L138.876 43.618L136.791 42.0337L139.713 38.2702Z" fill="white"/>
<path d="M145.98 45.6893L144.071 42.9239L159.528 32.4199L160.979 34.5243L148.214 43.1994L166.67 42.7741L168.577 45.5395L153.12 56.0413L151.671 53.9369L164.649 45.123L145.98 45.6893Z" fill="white"/>
<path d="M175.153 66.8515L173.006 60.9506L157.243 66.6091L156.282 63.9649L172.044 58.3218L169.884 52.3966L171.731 51.7356L177 66.2015L175.153 66.8515Z" fill="white"/>
<path d="M161.512 87.8285L161.093 84.964L166.421 82.0532L165.255 74.1868L159.328 72.9286L158.928 70.2073L178.536 74.8456L179 78.0208L161.512 87.8285ZM168.226 81.0991L176.136 76.7715L176.098 76.518L167.273 74.6076L168.226 81.0991Z" fill="white"/>
<path d="M171.341 113.865L162.631 112.102C161.723 111.946 160.886 111.516 160.234 110.871C159.632 110.247 159.235 109.457 159.095 108.605C158.938 107.755 158.875 106.889 158.906 106.025C158.947 105.136 159.061 104.252 159.246 103.381C160.295 98.2908 162.479 96.083 165.797 96.7572L174.478 98.52C177.984 99.2339 179.213 102.134 178.163 107.222C177.102 112.359 174.828 114.573 171.341 113.865ZM163.204 109.458L171.94 111.234C174.203 111.692 175.683 110.238 176.38 106.871C176.516 106.243 176.603 105.606 176.64 104.965C176.666 104.404 176.613 103.842 176.483 103.295C176.362 102.762 176.083 102.278 175.681 101.905C175.212 101.5 174.64 101.232 174.027 101.131L165.291 99.3551C163.179 98.9277 161.773 100.407 161.073 103.793C160.383 107.145 161.094 109.035 163.204 109.463V109.458Z" fill="white"/>
<path d="M165.75 133.901L168.492 128.243L153.378 121.035L154.601 118.506L169.715 125.713L172.466 120.033L174.242 120.877L167.531 134.741L165.75 133.901Z" fill="white"/>
<path d="M157.181 148.477L148.935 156.74L137.144 145.139L135.857 146.461L130.935 141.614L132.64 139.904L136.045 143.251L145.041 134.234L141.629 130.889L143.356 129.157L148.276 134.005L147.139 135.144C147.459 136.669 148.199 138.28 149.359 139.976C150.52 141.673 152.408 143.803 155.023 146.366L157.181 148.477ZM149.326 153.292L153.795 148.815L152.852 147.889C151.004 146.09 149.325 144.128 147.834 142.028C146.43 140.03 145.542 138.39 145.17 137.107L139.076 143.213L149.326 153.292Z" fill="white"/>
<path d="M125.957 165.788L121.455 158.179C120.965 157.406 120.728 156.501 120.776 155.588C120.839 154.727 121.164 153.906 121.708 153.233C122.24 152.547 122.846 151.921 123.515 151.366C124.213 150.8 124.955 150.291 125.735 149.844C130.247 147.213 133.36 147.346 135.075 150.245L139.562 157.829C141.377 160.892 140.027 163.738 135.513 166.368C130.945 169.028 127.76 168.835 125.957 165.788ZM123.811 156.842L128.326 164.475C129.497 166.449 131.575 166.567 134.56 164.827C135.121 164.507 135.656 164.144 136.161 163.743C136.599 163.388 136.985 162.973 137.306 162.511C137.626 162.066 137.802 161.535 137.81 160.989C137.802 160.373 137.621 159.772 137.287 159.253L132.769 151.62C131.679 149.776 129.632 149.729 126.628 151.479C123.657 153.209 122.718 154.997 123.811 156.842Z" fill="white"/>
<path d="M108.754 168.163L110.483 176.027L107.746 176.62L106.019 168.754C105.211 168.93 104.687 169.126 104.436 169.347C104.185 169.567 103.943 170.008 103.699 170.693L102.042 175.126C101.53 176.467 101.066 177.33 100.648 177.715C100.229 178.099 99.3539 178.436 98.0174 178.725L96.7498 179L96.339 177.09L97.7776 176.779C98.2392 176.681 98.6494 176.42 98.9321 176.045C99.3096 175.497 99.6008 174.895 99.7957 174.26L100.932 170.955C101.098 170.382 101.352 169.838 101.685 169.342C101.99 168.938 102.391 168.615 102.853 168.401C102.12 168.384 100.47 167.46 97.902 165.631L91.5281 161.088L94.7694 160.387L101.208 164.918C102.58 165.871 103.551 166.459 104.12 166.68C104.592 166.888 105.115 166.953 105.623 166.868L103.772 158.444L106.507 157.853L108.359 166.277C108.857 166.143 109.304 165.867 109.646 165.484C110.073 165.043 110.709 164.11 111.556 162.683L115.503 155.905L118.747 155.205L114.857 161.969C113.288 164.693 112.174 166.213 111.516 166.53C112.024 166.536 112.524 166.665 112.972 166.905C113.483 167.218 113.942 167.609 114.333 168.062L116.748 170.589C117.192 171.086 117.709 171.513 118.282 171.854C118.696 172.08 119.178 172.149 119.639 172.046L121.078 171.733L121.495 173.637L120.227 173.912C118.895 174.206 117.957 174.262 117.412 174.08C116.868 173.897 116.083 173.305 115.059 172.304L111.693 168.957C111.187 168.439 110.774 168.132 110.459 168.035C110.144 167.939 109.564 167.987 108.754 168.163Z" fill="white"/>
<path d="M86.1687 178.429L74.5043 177.328L76.0895 160.931L74.2512 160.757L74.9173 153.913L77.3305 154.145L76.8732 158.878L89.5987 160.09L90.0583 155.357L92.5004 155.577L91.8344 162.421L90.2248 162.269C89.2376 163.479 88.451 165.068 87.8649 167.035C87.2788 169.002 86.8096 171.802 86.4573 175.435L86.1687 178.429ZM77.4393 175.441L83.7599 176.043L83.8887 174.721C84.1224 172.163 84.5898 169.631 85.2851 167.156C85.9571 164.806 86.6749 163.085 87.4386 161.994L78.818 161.172L77.4393 175.441Z" fill="white"/>
<path d="M70.1419 157.164L73.3766 158.314L64.9113 164.089C66.0596 164.46 67.0777 165.148 67.8463 166.072C68.1792 166.472 68.3963 166.955 68.4745 167.468C68.5527 167.981 68.489 168.505 68.2903 168.985L67.2002 172.006C66.7014 173.39 65.9044 174.141 64.8092 174.258C63.7139 174.376 62.0341 174.032 59.7696 173.227L53.5754 171.024L59.9006 153.512L62.5358 154.449L59.8384 161.919L62.3915 162.829L70.1419 157.164ZM64.6693 170.797L65.5574 168.373C65.6857 168.068 65.7366 167.736 65.7057 167.407C65.6747 167.077 65.5628 166.761 65.3798 166.484C65.0083 165.928 64.1076 165.394 62.6779 164.885L59.2145 163.648L56.839 170.228L60.5355 171.55C62.8177 172.363 64.1957 172.111 64.6693 170.797Z" fill="white"/>
<path d="M48.0385 146.428L50.6338 148.572L38.6586 162.866L36.6827 161.236L46.5733 149.429L28.939 154.834L26.3415 152.693L38.3189 138.396L40.2926 140.027L30.2356 152.032L48.0385 146.428Z" fill="white"/>
<path d="M24.2812 117.635L25.9019 120.379L22.0034 128.728L31.2479 129.419L32.8708 132.163L21.1398 131.061L16.5708 141.329L14.9479 138.588L18.6688 130.673L9.89495 130.041L8.27209 127.291L19.5324 128.338L24.2812 117.635Z" fill="white"/>
<path d="M6.29619 105.117L14.8369 102.669C15.7136 102.387 16.6567 102.382 17.5366 102.654C18.3603 102.928 19.081 103.443 19.6035 104.132C20.1421 104.815 20.6037 105.553 20.98 106.336C21.3607 107.144 21.6748 107.982 21.9191 108.841C23.374 113.836 22.474 116.797 19.2194 117.726L10.7076 120.167C7.27084 121.154 4.82502 119.153 3.37012 114.163C1.90337 109.114 2.87872 106.098 6.29619 105.117ZM15.5629 105.263L6.99333 107.722C4.77324 108.356 4.14569 110.326 5.11069 113.629C5.28481 114.248 5.5075 114.852 5.77672 115.436C6.01489 115.945 6.32429 116.419 6.69582 116.842C7.05212 117.259 7.52738 117.56 8.05899 117.703C8.66252 117.847 9.2944 117.821 9.88391 117.629L18.4468 115.172C20.5189 114.584 21.0703 112.627 20.1008 109.299C19.1462 106.016 17.6335 104.668 15.5629 105.256V105.263Z" fill="white"/>
<path d="M15.4719 97.1713L0.235374 97.4159L3.05176e-05 83.0382L18.7288 82.7385L18.7732 85.5149L2.12246 85.7837L2.26674 94.5977L16.0891 94.3773C17.1103 94.3597 17.8415 94.6293 18.2825 95.186C18.7265 95.7435 18.9486 96.583 18.973 97.7112L19.0152 100.261L17.0526 100.291L17.026 98.716C17.026 98.1056 16.9083 97.6914 16.7041 97.4754C16.4998 97.2595 16.0869 97.1625 15.4719 97.1713Z" fill="white"/>
<path d="M9.75512 60.794L18.3669 62.9776C19.2667 63.1765 20.0826 63.6467 20.7024 64.324C21.2727 64.9753 21.631 65.7826 21.7303 66.6398C21.8456 67.4973 21.8665 68.3647 21.7925 69.2267C21.708 70.1148 21.5513 70.9946 21.3241 71.8577C20.0305 76.8904 17.7423 78.9911 14.4595 78.1597L5.87439 75.9826C2.40955 75.1012 1.32394 72.1456 2.61752 67.1158C3.92294 62.0272 6.30212 59.9199 9.75512 60.794ZM17.6675 65.58L9.02248 63.3897C6.78462 62.8212 5.23723 64.2028 4.38027 67.5345C4.21516 68.1549 4.09788 68.7869 4.02947 69.425C3.9747 69.984 4.00013 70.5478 4.10498 71.0997C4.19834 71.6381 4.45377 72.1359 4.83762 72.5275C5.28492 72.9557 5.84401 73.2511 6.45164 73.3803L15.0923 75.5706C17.1791 76.1023 18.654 74.6928 19.5169 71.3421C20.3694 68.031 19.7515 66.1103 17.6631 65.58H17.6675Z" fill="white"/>
<path d="M8.84042 50.5744L14.4995 40.3899L29.0323 48.3445L29.9203 46.7381L35.9856 50.0566L34.8156 52.1653L30.6241 49.8693L24.4522 60.9815L28.6482 63.2775L27.4626 65.4105L21.3973 62.0898L22.1766 60.6862C21.4499 59.3068 20.2925 57.959 18.7044 56.6428C17.1163 55.3266 14.7141 53.7885 11.4979 52.0287L8.84042 50.5744ZM15.07 43.8119L12.0041 49.3206L13.1674 49.9574C15.4398 51.1864 17.5947 52.6179 19.6057 54.2344C21.5061 55.7768 22.8123 57.1129 23.5242 58.2425L27.7047 50.7176L15.07 43.8119Z" fill="white"/>
<path d="M44.462 34.304L42.4639 36.4039L36.867 34.0638L31.35 39.848L34.0297 45.2465L32.1248 47.2428L23.6418 29.095L25.8619 26.7637L44.462 34.304ZM34.9821 33.2441L26.6567 29.7626L26.4791 29.9499L30.4375 38.008L34.9821 33.2441Z" fill="white"/>
<path d="M58.5857 7.43821C58.6722 7.40024 58.7654 7.37958 58.86 7.37738C58.9546 7.37519 59.0487 7.39152 59.1369 7.42543L59.138 7.42805C59.6233 7.61423 61.0953 8.18123 62.6387 9.12919C64.1646 10.066 65.8638 11.4362 66.6773 13.2711C67.4526 15.0197 67.5668 16.5543 67.0944 17.8268C66.6207 19.0999 65.6074 19.9826 64.3845 20.5166C63.1615 21.0507 61.8199 21.1963 60.5554 20.6823C59.2908 20.1683 58.2279 19.048 57.4526 17.2994C56.639 15.4645 56.769 13.2956 57.1039 11.5462C57.356 10.2785 57.724 9.03623 58.2031 7.83476L58.2044 7.83418C58.2386 7.74654 58.2899 7.66645 58.3553 7.5985C58.4208 7.53055 58.499 7.47608 58.5857 7.43821Z" fill="#FFFDFD"/>
</svg>
