<svg width="32" height="32" viewBox="0 0 32 32" fill="none" xmlns="http://www.w3.org/2000/svg">
<path d="M0 16C0 24.8366 7.16344 32 16 32C24.8366 32 32 24.8366 32 16C32 7.16344 24.8366 0 16 0C7.16344 0 0 7.16344 0 16Z" fill="#E60023"/>
<path d="M16.0493 8C11.6222 8 8 11.6923 8 16.2051C8 19.5897 10.0123 22.4615 12.8296 23.6923C12.8296 23.0769 12.8296 22.4615 12.9302 21.8462C13.1314 21.1282 13.9363 17.3333 13.9363 17.3333C13.9363 17.3333 13.6345 16.8205 13.6345 16C13.6345 14.7692 14.3388 13.8462 15.1437 13.8462C15.8481 13.8462 16.2505 14.359 16.2505 15.0769C16.2505 15.7949 15.7474 16.9231 15.5462 17.9487C15.345 18.7692 15.9487 19.4872 16.8542 19.4872C18.3635 19.4872 19.3696 17.5385 19.3696 15.0769C19.3696 13.2308 18.1622 11.8974 16.0493 11.8974C13.6345 11.8974 12.1253 13.7436 12.1253 15.7949C12.1253 16.5128 12.3265 17.0256 12.6283 17.4359C12.729 17.641 12.8296 17.641 12.729 17.8462C12.729 17.9487 12.6283 18.359 12.5277 18.4615C12.4271 18.6667 12.3265 18.7692 12.1253 18.6667C11.0185 18.1538 10.5154 16.9231 10.5154 15.4872C10.5154 13.1282 12.4271 10.359 16.2505 10.359C19.3696 10.359 21.3819 12.6154 21.3819 15.0769C21.3819 18.2564 19.6715 20.7179 17.0554 20.7179C16.1499 20.7179 15.345 20.2051 15.0431 19.6923C15.0431 19.6923 14.54 21.5385 14.4394 21.9487C14.2382 22.5641 13.9364 23.1795 13.6345 23.6923C14.3388 23.8974 15.1437 24 15.9487 24C20.3758 24 23.998 20.3077 23.998 15.7949C24.0986 11.6923 20.4764 8 16.0493 8Z" fill="white"/>
</svg>
