<svg width="32" height="32" viewBox="0 0 32 32" fill="none" xmlns="http://www.w3.org/2000/svg">
<path d="M0 16C0 24.8366 7.16344 32 16 32C24.8366 32 32 24.8366 32 16C32 7.16344 24.8366 0 16 0C7.16344 0 0 7.16344 0 16Z" fill="#FF0000"/>
<path d="M23.6 11.8214C23.4 11.0714 22.9 10.5357 22.2 10.3214C21 10 15.9 10 15.9 10C15.9 10 10.9 10 9.60001 10.3214C8.90001 10.5357 8.4 11.0714 8.2 11.8214C8 13.2143 8 16 8 16C8 16 8 18.7857 8.3 20.1786C8.5 20.9286 9 21.4643 9.7 21.6786C10.9 22 16 22 16 22C16 22 21 22 22.3 21.6786C23 21.4643 23.5 20.9286 23.7 20.1786C24 18.7857 24 16 24 16C24 16 24 13.2143 23.6 11.8214ZM14.4 18.5714V13.4286L18.6 16L14.4 18.5714Z" fill="white"/>
</svg>
