<svg width="145" height="19" viewBox="0 0 145 19" fill="none" xmlns="http://www.w3.org/2000/svg">
<path d="M8.748 18.36C10.428 18.36 11.852 18.004 13.02 17.292C14.196 16.572 15.092 15.584 15.708 14.328C16.324 13.072 16.632 11.644 16.632 10.044C16.632 9.98 16.628 9.832 16.62 9.6C16.612 9.368 16.6 9.176 16.584 9.024H10.56V11.04H13.92C13.744 12.64 13.232 13.868 12.384 14.724C11.536 15.572 10.372 15.988 8.892 15.972C7.06 15.956 5.68 15.344 4.752 14.136C3.832 12.928 3.376 11.336 3.384 9.36C3.392 8.04 3.596 6.884 3.996 5.892C4.404 4.892 5.016 4.116 5.832 3.564C6.648 3.012 7.668 2.74 8.892 2.748C10.084 2.756 11.072 3.068 11.856 3.684C12.64 4.3 13.204 5.124 13.548 6.156L16.092 5.7C15.652 4.036 14.824 2.732 13.608 1.788C12.4 0.843999 10.78 0.371999 8.748 0.371999C7.172 0.371999 5.78 0.735999 4.572 1.464C3.364 2.184 2.42 3.216 1.74 4.56C1.06 5.896 0.72 7.496 0.72 9.36C0.72 11.248 1.068 12.864 1.764 14.208C2.46 15.552 3.412 16.58 4.62 17.292C5.828 18.004 7.204 18.36 8.748 18.36ZM19.0238 18H21.5558V11.46C21.5558 10.7 21.6758 9.996 21.9158 9.348C22.1558 8.7 22.5798 8.18 23.1878 7.788C23.6198 7.508 24.0958 7.344 24.6158 7.296C25.1358 7.248 25.6038 7.28 26.0198 7.392V5.04C25.4358 4.928 24.8158 4.932 24.1598 5.052C23.5118 5.172 22.9438 5.412 22.4558 5.772C21.9758 6.092 21.5758 6.536 21.2558 7.104V5.04H19.0238V18ZM33.8186 18.36C35.0746 18.36 36.2146 18.044 37.2386 17.412C38.2626 16.772 39.0266 15.872 39.5306 14.712L37.0706 13.932C36.4146 15.308 35.2906 15.996 33.6986 15.996C32.6106 15.996 31.7546 15.668 31.1306 15.012C30.5066 14.356 30.1426 13.428 30.0386 12.228H39.6986C39.7866 10.676 39.6026 9.336 39.1466 8.208C38.6906 7.08 37.9986 6.212 37.0706 5.604C36.1426 4.988 35.0186 4.68 33.6986 4.68C32.4346 4.68 31.3266 4.964 30.3746 5.532C29.4226 6.1 28.6786 6.904 28.1426 7.944C27.6146 8.984 27.3506 10.212 27.3506 11.628C27.3506 12.964 27.6186 14.14 28.1546 15.156C28.6986 16.164 29.4546 16.952 30.4226 17.52C31.3986 18.08 32.5306 18.36 33.8186 18.36ZM33.7946 6.9C35.7546 6.9 36.8666 8.024 37.1306 10.272H30.0986C30.2586 9.176 30.6466 8.34 31.2626 7.764C31.8786 7.188 32.7226 6.9 33.7946 6.9ZM48.1389 18.36C49.3949 18.36 50.5349 18.044 51.5589 17.412C52.5829 16.772 53.3469 15.872 53.8509 14.712L51.3909 13.932C50.7349 15.308 49.6109 15.996 48.0189 15.996C46.9309 15.996 46.0749 15.668 45.4509 15.012C44.8269 14.356 44.4629 13.428 44.3589 12.228H54.0189C54.1069 10.676 53.9229 9.336 53.4669 8.208C53.0109 7.08 52.3189 6.212 51.3909 5.604C50.4629 4.988 49.3389 4.68 48.0189 4.68C46.7549 4.68 45.6469 4.964 44.6949 5.532C43.7429 6.1 42.9989 6.904 42.4629 7.944C41.9349 8.984 41.6709 10.212 41.6709 11.628C41.6709 12.964 41.9389 14.14 42.4749 15.156C43.0189 16.164 43.7749 16.952 44.7429 17.52C45.7189 18.08 46.8509 18.36 48.1389 18.36ZM48.1149 6.9C50.0749 6.9 51.1869 8.024 51.4509 10.272H44.4189C44.5789 9.176 44.9669 8.34 45.5829 7.764C46.1989 7.188 47.0429 6.9 48.1149 6.9ZM56.3477 18H58.8917V11.256C58.8917 10.232 59.0397 9.416 59.3357 8.808C59.6397 8.192 60.0397 7.748 60.5357 7.476C61.0317 7.204 61.5797 7.068 62.1797 7.068C62.8677 7.068 63.4277 7.208 63.8597 7.488C64.2917 7.768 64.6237 8.136 64.8557 8.592C65.0877 9.048 65.2437 9.544 65.3237 10.08C65.4117 10.608 65.4557 11.124 65.4557 11.628V18H67.9997V10.8C67.9997 10.4 67.9637 9.936 67.8917 9.408C67.8197 8.88 67.6837 8.34 67.4837 7.788C67.2837 7.236 66.9917 6.728 66.6077 6.264C66.2317 5.792 65.7397 5.412 65.1317 5.124C64.5237 4.836 63.7717 4.692 62.8757 4.692C61.9397 4.692 61.1077 4.86 60.3797 5.196C59.6597 5.532 59.0637 5.996 58.5917 6.588V5.04H56.3477V18ZM75.918 18H78.462V11.256C78.462 10.232 78.61 9.416 78.906 8.808C79.21 8.192 79.61 7.748 80.106 7.476C80.602 7.204 81.15 7.068 81.75 7.068C82.438 7.068 82.998 7.208 83.43 7.488C83.862 7.768 84.194 8.136 84.426 8.592C84.658 9.048 84.814 9.544 84.894 10.08C84.982 10.608 85.026 11.124 85.026 11.628V18H87.57V10.8C87.57 10.4 87.534 9.936 87.462 9.408C87.39 8.88 87.254 8.34 87.054 7.788C86.854 7.236 86.562 6.728 86.178 6.264C85.802 5.792 85.31 5.412 84.702 5.124C84.094 4.836 83.342 4.692 82.446 4.692C81.51 4.692 80.678 4.86 79.95 5.196C79.23 5.532 78.634 5.996 78.162 6.588V0.719999H75.918V18ZM96.3236 18.36C97.6116 18.36 98.7316 18.072 99.6836 17.496C100.636 16.912 101.372 16.108 101.892 15.084C102.42 14.052 102.684 12.86 102.684 11.508C102.684 10.172 102.424 8.992 101.904 7.968C101.384 6.936 100.648 6.132 99.6956 5.556C98.7436 4.972 97.6196 4.68 96.3236 4.68C95.0516 4.68 93.9396 4.968 92.9876 5.544C92.0356 6.12 91.2956 6.92 90.7676 7.944C90.2396 8.968 89.9756 10.156 89.9756 11.508C89.9756 12.844 90.2356 14.028 90.7556 15.06C91.2756 16.092 92.0076 16.9 92.9516 17.484C93.9036 18.068 95.0276 18.36 96.3236 18.36ZM96.3236 15.996C95.1156 15.996 94.1996 15.592 93.5756 14.784C92.9516 13.968 92.6396 12.876 92.6396 11.508C92.6396 10.188 92.9396 9.116 93.5396 8.292C94.1396 7.46 95.0676 7.044 96.3236 7.044C97.5476 7.044 98.4676 7.448 99.0836 8.256C99.7076 9.064 100.02 10.148 100.02 11.508C100.02 12.836 99.7116 13.916 99.0956 14.748C98.4876 15.58 97.5636 15.996 96.3236 15.996ZM110.205 18.348C111.141 18.348 111.969 18.18 112.689 17.844C113.417 17.508 114.017 17.044 114.489 16.452V18H116.721V5.04H114.189V11.784C114.189 12.808 114.041 13.628 113.745 14.244C113.449 14.852 113.049 15.292 112.545 15.564C112.049 15.836 111.501 15.972 110.901 15.972C110.213 15.972 109.653 15.832 109.221 15.552C108.789 15.272 108.457 14.904 108.225 14.448C107.993 13.992 107.833 13.5 107.745 12.972C107.665 12.436 107.625 11.916 107.625 11.412V5.04H105.081V12.24C105.081 12.64 105.117 13.104 105.189 13.632C105.261 14.16 105.397 14.7 105.597 15.252C105.797 15.804 106.085 16.316 106.461 16.788C106.845 17.252 107.341 17.628 107.949 17.916C108.557 18.204 109.309 18.348 110.205 18.348ZM125.042 18.348C126.682 18.348 127.966 17.984 128.894 17.256C129.83 16.528 130.298 15.524 130.298 14.244C130.298 13.572 130.158 13.004 129.878 12.54C129.606 12.076 129.15 11.676 128.51 11.34C127.87 10.996 127.006 10.684 125.918 10.404C124.902 10.148 124.134 9.928 123.614 9.744C123.102 9.552 122.754 9.36 122.57 9.168C122.386 8.968 122.294 8.724 122.294 8.436C122.294 7.94 122.53 7.552 123.002 7.272C123.474 6.984 124.09 6.856 124.85 6.888C125.642 6.92 126.286 7.12 126.782 7.488C127.278 7.848 127.57 8.336 127.658 8.952L130.226 8.484C130.082 7.332 129.518 6.412 128.534 5.724C127.55 5.028 126.314 4.68 124.826 4.68C123.306 4.68 122.086 5.036 121.166 5.748C120.246 6.452 119.786 7.392 119.786 8.568C119.786 9.2 119.922 9.74 120.194 10.188C120.474 10.628 120.938 11.012 121.586 11.34C122.242 11.668 123.126 11.98 124.238 12.276C125.254 12.548 126.01 12.776 126.506 12.96C127.002 13.144 127.326 13.34 127.478 13.548C127.638 13.748 127.718 14.012 127.718 14.34C127.718 14.9 127.494 15.34 127.046 15.66C126.606 15.98 125.994 16.14 125.21 16.14C124.346 16.14 123.622 15.948 123.038 15.564C122.462 15.18 122.094 14.648 121.934 13.968L119.366 14.364C119.59 15.628 120.198 16.608 121.19 17.304C122.182 18 123.466 18.348 125.042 18.348ZM138.701 18.36C139.957 18.36 141.097 18.044 142.121 17.412C143.145 16.772 143.909 15.872 144.413 14.712L141.953 13.932C141.297 15.308 140.173 15.996 138.581 15.996C137.493 15.996 136.637 15.668 136.013 15.012C135.389 14.356 135.025 13.428 134.921 12.228H144.581C144.669 10.676 144.485 9.336 144.029 8.208C143.573 7.08 142.881 6.212 141.953 5.604C141.025 4.988 139.901 4.68 138.581 4.68C137.317 4.68 136.209 4.964 135.257 5.532C134.305 6.1 133.561 6.904 133.025 7.944C132.497 8.984 132.233 10.212 132.233 11.628C132.233 12.964 132.501 14.14 133.037 15.156C133.581 16.164 134.337 16.952 135.305 17.52C136.281 18.08 137.413 18.36 138.701 18.36ZM138.677 6.9C140.637 6.9 141.749 8.024 142.013 10.272H134.981C135.141 9.176 135.529 8.34 136.145 7.764C136.761 7.188 137.605 6.9 138.677 6.9Z" fill="white"/>
</svg>
