<svg width="18" height="16" viewBox="0 0 18 16" fill="none" xmlns="http://www.w3.org/2000/svg">
<path d="M17.1818 7.99697H3.27273V3.5234C3.26986 3.23519 3.34762 2.9517 3.4976 2.7036C3.64758 2.45551 3.86407 2.25225 4.12364 2.11583C4.41066 1.96368 4.73775 1.89923 5.06261 1.9308C4.89726 2.42064 4.87377 2.94568 4.99475 3.44777C5.11572 3.94986 5.37644 4.40938 5.74801 4.77543L6.61577 5.6242C6.69172 5.69853 6.7819 5.75749 6.88116 5.79772C6.98042 5.83795 7.08681 5.85865 7.19425 5.85865C7.30169 5.85865 7.40808 5.83795 7.50733 5.79772C7.60659 5.75749 7.69677 5.69853 7.77273 5.6242L10.6651 2.795C10.7411 2.7207 10.8014 2.63249 10.8425 2.5354C10.8837 2.43831 10.9048 2.33425 10.9048 2.22916C10.9048 2.12406 10.8837 2.02 10.8425 1.92291C10.8014 1.82582 10.7411 1.73761 10.6651 1.66332L9.79741 0.814558C9.31445 0.344279 8.67563 0.0582265 7.9961 0.0079644C7.31657 -0.0422977 6.64104 0.146537 6.09127 0.54043C5.59559 0.35107 5.06012 0.28303 4.53143 0.342227C4.00274 0.401423 3.49683 0.586063 3.05772 0.88009C2.61861 1.17412 2.25958 1.56862 2.01187 2.0293C1.76415 2.48998 1.63524 3.00289 1.63636 3.5234V7.99697H0.818182C0.601187 7.99697 0.393079 8.08128 0.23964 8.23137C0.086201 8.38146 0 8.58502 0 8.79727C0 9.00952 0.086201 9.21308 0.23964 9.36317C0.393079 9.51326 0.601187 9.59757 0.818182 9.59757H1.63636V11.9985C1.63792 12.4934 1.79605 12.9757 2.08904 13.3791C2.38203 13.7826 2.79552 14.0875 3.27273 14.2519V15.1997C3.27273 15.412 3.35893 15.6155 3.51237 15.7656C3.66581 15.9157 3.87391 16 4.09091 16C4.3079 16 4.51601 15.9157 4.66945 15.7656C4.82289 15.6155 4.90909 15.412 4.90909 15.1997V14.3994H13.0909V15.1997C13.0909 15.412 13.1771 15.6155 13.3305 15.7656C13.484 15.9157 13.6921 16 13.9091 16C14.1261 16 14.3342 15.9157 14.4876 15.7656C14.6411 15.6155 14.7273 15.412 14.7273 15.1997V14.2519C15.2045 14.0875 15.618 13.7826 15.911 13.3791C16.204 12.9757 16.3621 12.4934 16.3636 11.9985V9.59757H17.1818C17.3988 9.59757 17.6069 9.51326 17.7604 9.36317C17.9138 9.21308 18 9.00952 18 8.79727C18 8.58502 17.9138 8.38146 17.7604 8.23137C17.6069 8.08128 17.3988 7.99697 17.1818 7.99697ZM6.905 1.94623C7.13535 1.72152 7.4474 1.59533 7.77273 1.59533C8.09805 1.59533 8.4101 1.72152 8.64045 1.94623L8.92968 2.22916L7.19427 3.92667L6.90503 3.64376C6.67517 3.41851 6.54607 3.11326 6.54606 2.795C6.54606 2.47674 6.67515 2.17149 6.905 1.94623ZM14.7273 11.9985C14.7271 12.2107 14.6409 12.4142 14.4875 12.5642C14.3341 12.7143 14.126 12.7986 13.9091 12.7988H4.09091C3.87396 12.7986 3.66594 12.7143 3.51253 12.5642C3.35912 12.4142 3.27287 12.2107 3.27273 11.9985V9.59757H14.7273V11.9985Z" fill="#0A121F"/>
</svg>
