<svg width="18" height="14" viewBox="0 0 18 14" fill="none" xmlns="http://www.w3.org/2000/svg">
<path d="M16.3299 6.09868V1.74196C16.3299 0.78145 15.611 0 14.7272 0H3.27277C2.38904 0 1.67006 0.78145 1.67006 1.74196V6.09868C0.708328 6.38805 0 7.34715 0 8.48323V11.7936C0 12.1143 0.239273 12.3744 0.534375 12.3744H1.67006V13.4192C1.67006 13.7399 1.90934 14 2.20444 14C2.49954 14 2.73881 13.7399 2.73881 13.4192V12.3744H15.2612V13.4192C15.2612 13.7399 15.5005 14 15.7956 14C16.0907 14 16.3299 13.7399 16.3299 13.4192V12.3744H17.4656C17.7607 12.3744 18 12.1143 18 11.7936V8.48323C18 7.34715 17.2916 6.38805 16.3299 6.09868ZM2.73881 1.74196C2.73881 1.42198 2.97837 1.16161 3.27277 1.16161H14.7273C15.0217 1.16161 15.2612 1.42198 15.2612 1.74196V6.00881H14.0091V4.84296C14.0091 3.82919 13.2503 3.00444 12.3176 3.00444H10.1572C9.70987 3.00444 9.30284 3.19447 9.00004 3.50378C8.69724 3.1945 8.2902 3.00444 7.84287 3.00444H5.68248C4.74975 3.00444 3.99094 3.82922 3.99094 4.84296V6.00881H2.73881V1.74196ZM12.9404 4.84296V6.00881H9.53438V4.84296C9.53438 4.46968 9.8138 4.16605 10.1572 4.16605H12.3176C12.661 4.16605 12.9404 4.46972 12.9404 4.84296ZM8.46559 4.84296V6.00881H5.05958V4.84296C5.05958 4.46968 5.339 4.16605 5.68237 4.16605H7.84276C8.1862 4.16605 8.46559 4.46972 8.46559 4.84296ZM16.9313 11.2127H1.06875V8.48323C1.06875 7.75936 1.61058 7.17042 2.27661 7.17042H15.7234C16.3894 7.17042 16.9313 7.75933 16.9313 8.48323V11.2127Z" fill="#0A121F"/>
</svg>
