<svg width="30" height="30" viewBox="0 0 30 30" fill="none" xmlns="http://www.w3.org/2000/svg">
<circle cx="15" cy="15" r="15" fill="white"/>
<path d="M21.75 10.364C21.75 9.24093 20.759 8.25 19.636 8.25H11.114C9.9909 8.25 8.99997 9.24093 8.99997 10.364V18.886C8.99997 20.0091 9.9909 21 11.114 21H15.408V16.1775H13.8225V14.0635H15.408V13.2047C15.408 11.7513 16.465 10.4961 17.7862 10.4961H19.5039V12.6101H17.7862C17.5881 12.6101 17.3899 12.8083 17.3899 13.2047V14.0635H19.5039V16.1775H17.3899V21H19.636C20.759 21 21.75 20.0091 21.75 18.886V10.364Z" fill="#979899"/>
</svg>
