<svg width="16" height="18" viewBox="0 0 16 18" fill="none" xmlns="http://www.w3.org/2000/svg">
<path d="M15.1111 5.41506L9.77779 0.686717C9.28889 0.244487 8.65596 0 8.00003 0C7.34409 0 6.71117 0.244487 6.22226 0.686717L0.888967 5.41506C0.60663 5.67042 0.381326 5.98368 0.228058 6.33398C0.0747893 6.68428 -0.0029267 7.06358 8.42608e-05 7.44663V15.3032C8.42608e-05 16.0185 0.281034 16.7044 0.781127 17.2101C1.28122 17.7159 1.95949 18 2.66673 18H13.3333C14.0406 18 14.7188 17.7159 15.2189 17.2101C15.719 16.7044 16 16.0185 16 15.3032V7.43764C16.0017 7.0561 15.9234 6.67853 15.7702 6.32988C15.6169 5.98122 15.3923 5.66942 15.1111 5.41506ZM9.77779 16.2022H6.22226V11.7075C6.22226 11.4691 6.31591 11.2405 6.48261 11.0719C6.64931 10.9033 6.8754 10.8086 7.11114 10.8086H8.88891C9.12466 10.8086 9.35075 10.9033 9.51744 11.0719C9.68414 11.2405 9.77779 11.4691 9.77779 11.7075V16.2022ZM14.2222 15.3032C14.2222 15.5416 14.1286 15.7703 13.9619 15.9389C13.7952 16.1074 13.5691 16.2022 13.3333 16.2022H11.5556V11.7075C11.5556 10.9923 11.2746 10.3064 10.7745 9.80062C10.2744 9.29488 9.59615 9.01076 8.88891 9.01076H7.11114C6.40391 9.01076 5.72563 9.29488 5.22554 9.80062C4.72545 10.3064 4.4445 10.9923 4.4445 11.7075V16.2022H2.66673C2.43099 16.2022 2.2049 16.1074 2.0382 15.9389C1.8715 15.7703 1.77785 15.5416 1.77785 15.3032V7.43764C1.77801 7.31 1.80504 7.18387 1.85715 7.06762C1.90926 6.95138 1.98525 6.84768 2.08007 6.76345L7.41336 2.04409C7.57558 1.89998 7.78411 1.8205 8.00003 1.8205C8.21594 1.8205 8.42448 1.89998 8.58669 2.04409L13.92 6.76345C14.0148 6.84768 14.0908 6.95138 14.1429 7.06762C14.195 7.18387 14.222 7.31 14.2222 7.43764V15.3032Z" fill="#0A121F"/>
</svg>
