<svg width="30" height="30" viewBox="0 0 30 30" fill="none" xmlns="http://www.w3.org/2000/svg">
<circle cx="15" cy="15" r="15" fill="white"/>
<path d="M19.9355 9H10.8144C9.78458 9 8.99997 9.78462 8.99997 10.8144V19.9356C8.99997 20.9654 9.78458 21.75 10.8144 21.75H19.9355C20.9654 21.75 21.75 20.9654 21.75 19.9356V10.8144C21.75 9.78462 20.9654 9 19.9355 9ZM15.375 19.2C17.4836 19.2 19.2 17.5327 19.2 15.5221C19.2 15.1788 19.1509 14.7865 19.0529 14.4923H20.1317V19.6904C20.1317 19.9356 19.9355 20.1808 19.6413 20.1808H11.1086C10.8634 20.1808 10.6182 19.9846 10.6182 19.6904V14.4433H11.7461C11.648 14.7865 11.599 15.1298 11.599 15.4731C11.55 17.5327 13.2663 19.2 15.375 19.2ZM15.375 17.7288C14.0019 17.7288 12.923 16.65 12.923 15.326C12.923 14.0019 14.0019 12.9231 15.375 12.9231C16.748 12.9231 17.8269 14.0019 17.8269 15.326C17.8269 16.699 16.748 17.7288 15.375 17.7288ZM20.0827 12.4817C20.0827 12.776 19.8375 13.0212 19.5432 13.0212H18.1702C17.8759 13.0212 17.6307 12.776 17.6307 12.4817V11.1577C17.6307 10.8635 17.8759 10.6183 18.1702 10.6183H19.5432C19.8375 10.6183 20.0827 10.8635 20.0827 11.1577V12.4817Z" fill="#979899"/>
</svg>
