<svg width="34" height="24" viewBox="0 0 34 24" fill="none" xmlns="http://www.w3.org/2000/svg">
<rect width="34" height="24" rx="2" fill="white"/>
<path fill-rule="evenodd" clip-rule="evenodd" d="M17 17.4472C15.8349 18.4155 14.3236 19 12.6721 19C8.98721 19 6 16.0899 6 12.5C6 8.91015 8.98721 6 12.6721 6C14.3236 6 15.8349 6.58452 17 7.55277C18.1651 6.58452 19.6764 6 21.3279 6C25.0128 6 28 8.91015 28 12.5C28 16.0899 25.0128 19 21.3279 19C19.6764 19 18.1651 18.4155 17 17.4472Z" fill="#979899"/>
<path fill-rule="evenodd" clip-rule="evenodd" d="M17 17.4472C18.4346 16.255 19.3442 14.481 19.3442 12.5C19.3442 10.519 18.4346 8.74499 17 7.55277C18.1651 6.58452 19.6764 6 21.3279 6C25.0128 6 28 8.91015 28 12.5C28 16.0899 25.0128 19 21.3279 19C19.6764 19 18.1651 18.4155 17 17.4472Z" fill="#ABA8A8"/>
<path fill-rule="evenodd" clip-rule="evenodd" d="M17 17.4472C18.4346 16.255 19.3443 14.481 19.3443 12.5C19.3443 10.519 18.4346 8.74495 17 7.55273C15.5654 8.74495 14.6558 10.519 14.6558 12.5C14.6558 14.481 15.5654 16.255 17 17.4472Z" fill="#979899"/>
</svg>
