<svg width="18" height="18" viewBox="0 0 18 18" fill="none" xmlns="http://www.w3.org/2000/svg">
<path d="M17.6829 0.739277C17.5833 0.658734 17.4669 0.601529 17.3423 0.571866C17.2177 0.542203 17.088 0.540838 16.9629 0.56787C16.6381 0.640231 16.3015 0.641704 15.976 0.572191C15.6506 0.502677 15.344 0.363811 15.0771 0.165063C14.9303 0.0578059 14.7532 0 14.5714 0C14.3896 0 14.2125 0.0578059 14.0657 0.165063C13.7988 0.363811 13.4922 0.502677 13.1668 0.572191C12.8414 0.641704 12.5048 0.640231 12.18 0.56787C12.0548 0.540838 11.9251 0.542203 11.8005 0.571866C11.6759 0.601529 11.5596 0.658734 11.46 0.739277C11.3606 0.81994 11.2804 0.921857 11.2256 1.03754C11.1707 1.15322 11.1424 1.27973 11.1429 1.40777V4.24456C11.1422 4.85914 11.2843 5.46547 11.558 6.01576C11.8317 6.56605 12.2295 7.04525 12.72 7.41559L14.0657 8.40976C14.2125 8.51701 14.3896 8.57482 14.5714 8.57482C14.7532 8.57482 14.9303 8.51701 15.0771 8.40976L16.4229 7.41559C16.9134 7.04525 17.3112 6.56605 17.5849 6.01576C17.8585 5.46547 18.0007 4.85914 18 4.24456V1.40777C18.0004 1.27973 17.9722 1.15322 17.9173 1.03754C17.8624 0.921857 17.7823 0.81994 17.6829 0.739277ZM16.2857 4.24456C16.2897 4.58885 16.2145 4.92945 16.0659 5.24005C15.9173 5.55064 15.6992 5.82289 15.4286 6.03577L14.5714 6.65283L13.7143 6.03577C13.4436 5.82289 13.2256 5.55064 13.0769 5.24005C12.9283 4.92945 12.8531 4.58885 12.8571 4.24456V2.33337C13.4554 2.30543 14.0404 2.1475 14.5714 1.87057C15.1025 2.1475 15.6874 2.30543 16.2857 2.33337V4.24456ZM14.5714 10.2867C14.3441 10.2867 14.1261 10.377 13.9653 10.5377C13.8046 10.6984 13.7143 10.9164 13.7143 11.1437V11.478L12.4286 10.2095C12.2079 9.98746 11.9455 9.81122 11.6564 9.69096C11.3674 9.57069 11.0574 9.50878 10.7443 9.50878C10.4312 9.50878 10.1212 9.57069 9.83214 9.69096C9.54308 9.81122 9.28067 9.98746 9.06 10.2095L8.46 10.8095L6.35143 8.67544C5.89724 8.24315 5.2942 8.00205 4.66714 8.00205C4.04009 8.00205 3.43704 8.24315 2.98286 8.67544L1.71429 9.94385V5.14445C1.71429 4.91715 1.80459 4.69916 1.96534 4.53843C2.12608 4.37771 2.3441 4.28741 2.57143 4.28741H8.57143C8.79875 4.28741 9.01677 4.19711 9.17752 4.03639C9.33826 3.87566 9.42857 3.65767 9.42857 3.43037C9.42857 3.20307 9.33826 2.98508 9.17752 2.82436C9.01677 2.66363 8.79875 2.57334 8.57143 2.57334H2.57143C1.88944 2.57334 1.23539 2.84422 0.753154 3.3264C0.270918 3.80857 0 4.46255 0 5.14445V15.4289C0 16.1108 0.270918 16.7648 0.753154 17.2469C1.23539 17.7291 1.88944 18 2.57143 18H12.8571C13.5391 18 14.1932 17.7291 14.6754 17.2469C15.1576 16.7648 15.4286 16.1108 15.4286 15.4289V11.1437C15.4286 10.9164 15.3383 10.6984 15.1775 10.5377C15.0168 10.377 14.7988 10.2867 14.5714 10.2867ZM2.57143 16.2859C2.3441 16.2859 2.12608 16.1956 1.96534 16.0349C1.80459 15.8742 1.71429 15.6562 1.71429 15.4289V12.3693L4.2 9.85815C4.32592 9.73816 4.4932 9.67123 4.66714 9.67123C4.84109 9.67123 5.00836 9.73816 5.13428 9.85815L7.85143 12.575L11.5714 16.2859H2.57143ZM13.7143 15.4289C13.7071 15.5919 13.6536 15.7495 13.56 15.8831L9.69428 12.0179L10.2943 11.418C10.4196 11.2934 10.589 11.2235 10.7657 11.2235C10.9424 11.2235 11.1119 11.2934 11.2371 11.418L13.7143 13.9034V15.4289Z" fill="#0A121F"/>
</svg>
