<svg width="14" height="18" viewBox="0 0 14 18" fill="none" xmlns="http://www.w3.org/2000/svg">
<path d="M7 0C5.14348 0 3.36301 0.758567 2.05025 2.10882C0.737498 3.45908 0 5.29042 0 7.19998C0 12.06 6.16875 17.5499 6.43125 17.7839C6.58974 17.9234 6.79144 18 7 18C7.20856 18 7.41026 17.9234 7.56875 17.7839C7.875 17.5499 14 12.06 14 7.19998C14 5.29042 13.2625 3.45908 11.9497 2.10882C10.637 0.758567 8.85652 0 7 0ZM7 15.8849C5.13625 14.085 1.75 10.206 1.75 7.19998C1.75 5.76781 2.30312 4.39431 3.28769 3.38161C4.27226 2.36892 5.60761 1.79999 7 1.79999C8.39239 1.79999 9.72775 2.36892 10.7123 3.38161C11.6969 4.39431 12.25 5.76781 12.25 7.19998C12.25 10.206 8.86375 14.094 7 15.8849ZM7 3.59999C6.30777 3.59999 5.63108 3.81112 5.0555 4.2067C4.47993 4.60227 4.03133 5.16451 3.76642 5.82232C3.50151 6.48013 3.4322 7.20397 3.56725 7.9023C3.7023 8.60063 4.03564 9.24209 4.52513 9.74555C5.01461 10.249 5.63825 10.5919 6.31718 10.7308C6.99612 10.8697 7.69985 10.7984 8.33939 10.5259C8.97893 10.2535 9.52556 9.79204 9.91014 9.20002C10.2947 8.60801 10.5 7.91199 10.5 7.19998C10.5 6.2452 10.1313 5.32953 9.47487 4.6544C8.8185 3.97927 7.92826 3.59999 7 3.59999ZM7 8.99997C6.65388 8.99997 6.31554 8.8944 6.02775 8.69662C5.73997 8.49883 5.51566 8.21771 5.38321 7.8888C5.25076 7.5599 5.2161 7.19798 5.28363 6.84881C5.35115 6.49965 5.51782 6.17892 5.76256 5.92719C6.00731 5.67546 6.31913 5.50402 6.65859 5.43457C6.99806 5.36512 7.34993 5.40076 7.6697 5.537C7.98947 5.67324 8.26278 5.90395 8.45507 6.19995C8.64736 6.49596 8.75 6.84397 8.75 7.19998C8.75 7.67736 8.56563 8.1352 8.23744 8.47276C7.90925 8.81033 7.46413 8.99997 7 8.99997Z" fill="#0A121F"/>
</svg>
