<svg width="13" height="16" viewBox="0 0 13 16" fill="none" xmlns="http://www.w3.org/2000/svg">
<path d="M12.6994 1.3191C12.605 1.24389 12.4947 1.19048 12.3766 1.16278C12.2585 1.13508 12.1355 1.13381 12.0169 1.15905C11.1487 1.33826 10.2524 1.34054 9.38326 1.16576C8.51412 0.990971 7.69051 0.642817 6.96312 0.142729C6.82712 0.049798 6.66553 0 6.5 0C6.33447 0 6.17288 0.049798 6.03688 0.142729C5.30949 0.642817 4.48587 0.990971 3.61674 1.16576C2.7476 1.34054 1.85134 1.33826 0.983129 1.15905C0.864454 1.13381 0.741545 1.13508 0.623436 1.16278C0.505327 1.19048 0.395022 1.24389 0.300629 1.3191C0.206363 1.39442 0.130428 1.48958 0.0784046 1.5976C0.0263814 1.70561 -0.000408029 1.82374 4.69745e-06 1.94329V7.90516C-0.000717644 9.05252 0.276883 10.1834 0.809689 11.2038C1.34249 12.2241 2.11509 13.1043 3.06313 13.771L6.02875 15.8516C6.16636 15.9481 6.33108 16 6.5 16C6.66892 16 6.83364 15.9481 6.97125 15.8516L9.93687 13.771C10.8849 13.1043 11.6575 12.2241 12.1903 11.2038C12.7231 10.1834 13.0007 9.05252 13 7.90516V1.94329C13.0004 1.82374 12.9736 1.70561 12.9216 1.5976C12.8696 1.48958 12.7936 1.39442 12.6994 1.3191ZM11.375 7.90516C11.3756 8.79724 11.1599 9.67657 10.7458 10.47C10.3318 11.2634 9.73128 11.9479 8.99437 12.4666L6.5 14.2191L4.00563 12.4666C3.26872 11.9479 2.66824 11.2634 2.25416 10.47C1.84008 9.67657 1.62438 8.79724 1.625 7.90516V2.86358C3.32835 3.00717 5.03428 2.61792 6.5 1.75123C7.96572 2.61792 9.67165 3.00717 11.375 2.86358V7.90516ZM7.75125 6.07259L5.56563 8.23326L4.8425 7.51304C4.6895 7.36235 4.482 7.27769 4.26563 7.27769C4.04926 7.27769 3.84175 7.36235 3.68875 7.51304C3.53576 7.66373 3.4498 7.86811 3.4498 8.08121C3.4498 8.29432 3.53576 8.4987 3.68875 8.64939L4.98875 9.92979C5.06428 10.0048 5.15415 10.0643 5.25316 10.105C5.35217 10.1456 5.45837 10.1665 5.56563 10.1665C5.67289 10.1665 5.77908 10.1456 5.87809 10.105C5.9771 10.0643 6.06697 10.0048 6.1425 9.92979L8.9375 7.20094C9.0905 7.05025 9.17645 6.84587 9.17645 6.63276C9.17645 6.41965 9.0905 6.21527 8.9375 6.06458C8.7845 5.91389 8.57699 5.82924 8.36062 5.82924C8.14425 5.82924 7.93675 5.91389 7.78375 6.06458L7.75125 6.07259Z" fill="#0A121F"/>
</svg>
