<svg width="19" height="11" viewBox="0 0 19 11" fill="none" xmlns="http://www.w3.org/2000/svg">
<path fill-rule="evenodd" clip-rule="evenodd" d="M17.4649 2.44603H16.625V1.76445C16.625 0.439515 15.6018 5.17027e-05 15.0415 1.8203e-05H3.95838C3.03761 1.8203e-05 2.28846 0.791563 2.28846 1.76445V2.44603H1.53511C0.688698 2.44603 0 3.1737 0 4.06802V9.37786C0 10.2723 0.688698 11 1.53511 11H17.4649C18.3113 11 19 10.2723 19 9.37786V4.06802C19 3.1737 18.3113 2.44603 17.4649 2.44603ZM1.11328 9.37786C1.11328 9.62368 1.3026 9.82371 1.53511 9.82371H3.5222C3.75486 9.82371 3.94403 9.62368 3.94403 9.37786V4.06802C3.94403 3.82219 3.75486 3.62231 3.5222 3.62231H1.53511C1.3026 3.62231 1.11328 3.82219 1.11328 4.06802V9.37786ZM15.0416 1.17631H3.95838C3.6515 1.17631 3.40174 1.44021 3.40174 1.76445V2.44603H3.5222C4.36861 2.44603 5.05731 3.1737 5.05731 4.06802V6.13479H13.9427V4.06802C13.9427 3.1737 14.6312 2.44603 15.4778 2.44603H15.5983V1.76445C15.5983 1.44021 15.3485 1.17631 15.0416 1.17631ZM5.05731 7.31108V9.37786C5.05731 9.53255 5.03629 9.68188 4.99788 9.82371H14.0021C13.9637 9.68188 13.9427 9.53255 13.9427 9.37786V7.31108H5.05731ZM15.056 4.06802V9.37786C15.056 9.62368 15.2451 9.82371 15.4778 9.82371H17.4649C17.6974 9.82371 17.8867 9.62368 17.8867 9.37786V4.06802C17.8867 3.82219 17.6974 3.62231 17.4649 3.62231H15.4778C15.2451 3.62231 15.056 3.82219 15.056 4.06802Z" fill="#0A121F"/>
</svg>
