<svg width="34" height="24" viewBox="0 0 34 24" fill="none" xmlns="http://www.w3.org/2000/svg">
<rect width="34" height="24" rx="2" fill="white"/>
<path fill-rule="evenodd" clip-rule="evenodd" d="M11.0003 15.9377H8.9232L7.36567 9.73152C7.29174 9.44603 7.13477 9.19365 6.90388 9.0747C6.32765 8.77577 5.69269 8.53786 5 8.41788V8.17894H8.34596C8.80775 8.17894 9.1541 8.53786 9.21182 8.95471L10.02 13.4314L12.096 8.17894H14.1153L11.0003 15.9377ZM15.2698 15.9377H13.3082L14.9235 8.17894H16.8851L15.2698 15.9377ZM19.4229 10.3283C19.4806 9.91047 19.827 9.67153 20.231 9.67153C20.866 9.61154 21.5577 9.73152 22.1349 10.0294L22.4812 8.35892C21.904 8.11999 21.269 8 20.6928 8C18.7889 8 17.4036 9.0747 17.4036 10.5663C17.4036 11.7009 18.3849 12.2967 19.0776 12.6557C19.827 13.0136 20.1156 13.2525 20.0579 13.6104C20.0579 14.1472 19.4806 14.3862 18.9044 14.3862C18.2117 14.3862 17.519 14.2072 16.8851 13.9083L16.5387 15.5798C17.2314 15.8777 17.9808 15.9977 18.6735 15.9977C20.8083 16.0566 22.1349 14.983 22.1349 13.3714C22.1349 11.342 19.4229 11.2231 19.4229 10.3283ZM29 15.9377L27.4425 8.17894H25.7695C25.4231 8.17894 25.0768 8.41788 24.9613 8.77577L22.0772 15.9377H24.0965L24.4996 14.804H26.9807L27.2116 15.9377H29ZM26.0581 10.2684L26.6343 13.1925H25.0191L26.0581 10.2684Z" fill="#979899"/>
</svg>
