<svg width="34" height="24" viewBox="0 0 34 24" fill="none" xmlns="http://www.w3.org/2000/svg">
<rect width="34" height="24" rx="2" fill="white"/>
<path d="M23 10.2933C22.9319 9.85912 22.5576 9.56966 22.0471 9.56966C21.877 9.56966 21.7408 9.56966 21.5707 9.56966C21.2644 9.53348 21.1963 9.64203 21.1963 9.8953C21.1963 11.1617 21.1963 12.3918 21.1963 13.6582C21.1963 14.3095 20.5838 14.9969 19.8691 15.1416C17.623 15.6844 15.377 16.1909 13.1309 16.7336C12.8927 16.806 12.6204 16.806 12.3482 16.806C12.2461 16.806 12.0759 16.7336 12.0419 16.6251C12.0079 16.5527 12.1099 16.408 12.178 16.3356C12.2801 16.2633 12.4162 16.1909 12.5524 16.1186C12.9607 15.9738 13.4031 15.8291 13.8115 15.6844C15.4791 15.1055 17.1466 14.5266 18.8141 13.9115C19.5628 13.6582 19.9712 13.1155 19.9712 12.428C20.0052 10.2571 19.9712 8.05003 19.9712 5.87913C19.9712 5.51732 19.801 5.22786 19.4267 5.08314C18.9843 4.90223 18.5759 5.04695 18.2016 5.22786C15.8194 6.42186 13.4712 7.61586 11.089 8.80985C10.4084 9.17167 10 9.67821 10 10.4018C10 12.4642 10 14.5266 10 16.5889C10 16.6975 9.99999 16.806 10.034 16.8784C10.2722 17.5658 10.8848 18 11.7016 18C13.3691 18 15.0366 18 16.7042 18C18.3717 18 20.0052 18 21.6728 18C22.0471 18 22.3534 17.9276 22.6257 17.6744C22.966 17.3849 22.966 16.9869 22.966 16.6251C22.966 14.845 23 10.2933 23 10.2933ZM16.0576 9.64203C16.2277 9.17167 16.6021 8.88222 17.1466 8.80985C17.5209 8.77367 17.8272 8.99076 17.8953 9.35258C17.9633 9.8953 17.3508 10.5466 16.7042 10.5466C16.1937 10.5466 15.8874 10.1486 16.0576 9.64203Z" fill="#979899"/>
</svg>
