<svg width="20" height="20" viewBox="0 0 20 20" fill="none" xmlns="http://www.w3.org/2000/svg">
<path d="M7.34794 17C13.7615 17 17.2704 11.6132 17.2704 6.94325C17.2704 6.79182 17.267 6.63702 17.2604 6.48558C17.943 5.98526 18.532 5.36554 18.9999 4.65555C18.3642 4.94222 17.6892 5.12944 16.9981 5.21082C17.7258 4.7687 18.2707 4.07416 18.5317 3.25594C17.8471 3.66716 17.0984 3.95724 16.3178 4.11374C15.7918 3.54727 15.0963 3.17219 14.3389 3.04651C13.5814 2.92083 12.8043 3.05153 12.1275 3.41843C11.4507 3.78532 10.912 4.36796 10.5947 5.07626C10.2774 5.78457 10.1992 6.57909 10.3721 7.33699C8.98584 7.26648 7.6297 6.9015 6.39156 6.26571C5.15343 5.62991 4.06094 4.73749 3.18493 3.64631C2.73969 4.42434 2.60345 5.34501 2.80389 6.22119C3.00433 7.09738 3.52641 7.86333 4.26403 8.3634C3.71027 8.34558 3.16864 8.19446 2.68389 7.92255V7.96629C2.6834 8.78278 2.96189 9.57424 3.47204 10.2061C3.98219 10.838 4.69251 11.2714 5.48225 11.4325C4.96928 11.5748 4.4309 11.5955 3.90876 11.4931C4.13161 12.1953 4.56519 12.8094 5.149 13.2498C5.7328 13.6902 6.4377 13.9349 7.16532 13.9497C5.93004 14.9332 4.40412 15.4666 2.83331 15.4641C2.55474 15.4637 2.27644 15.4464 1.99991 15.4123C3.59568 16.4499 5.45199 17.001 7.34794 17Z" fill="#211E1D"/>
</svg>
