<svg width="1097" height="464" viewBox="0 0 1097 464" fill="none" xmlns="http://www.w3.org/2000/svg">
<path d="M149.27 100.88H199.67V184.4C188.15 192.656 174.902 198.992 159.926 203.408C144.95 207.824 129.974 210.032 114.998 210.032C93.8781 210.032 74.8701 205.616 57.9742 196.784C41.0781 187.76 27.8301 175.28 18.2301 159.344C8.63015 143.408 3.83015 125.36 3.83015 105.2C3.83015 85.04 8.63015 66.992 18.2301 51.056C27.8301 35.12 41.1741 22.736 58.2621 13.904C75.3501 4.87999 94.6462 0.367987 116.15 0.367987C134.966 0.367987 151.862 3.53599 166.838 9.87198C181.814 16.208 194.294 25.328 204.278 37.232L167.99 70.064C154.358 55.088 138.038 47.6 119.03 47.6C101.75 47.6 87.8301 52.88 77.2701 63.44C66.7101 73.808 61.4302 87.728 61.4302 105.2C61.4302 116.336 63.8301 126.32 68.6301 135.152C73.4301 143.792 80.1502 150.608 88.7902 155.6C97.4302 160.4 107.318 162.8 118.454 162.8C129.398 162.8 139.67 160.592 149.27 156.176V100.88ZM335.471 152.432H304.367V206H247.343V4.39999H339.503C357.743 4.39999 373.583 7.47199 387.023 13.616C400.463 19.568 410.831 28.208 418.127 39.536C425.423 50.672 429.071 63.824 429.071 78.992C429.071 93.584 425.615 106.352 418.703 117.296C411.983 128.048 402.287 136.496 389.615 142.64L433.103 206H372.047L335.471 152.432ZM371.471 78.992C371.471 69.584 368.495 62.288 362.543 57.104C356.591 51.92 347.759 49.328 336.047 49.328H304.367V108.368H336.047C347.759 108.368 356.591 105.872 362.543 100.88C368.495 95.696 371.471 88.4 371.471 78.992ZM633.907 161.936V206H472.051V4.39999H630.163V48.464H528.499V82.448H618.067V125.072H528.499V161.936H633.907ZM838.927 161.936V206H677.071V4.39999H835.183V48.464H733.519V82.448H823.087V125.072H733.519V161.936H838.927ZM1073.9 4.39999V206H1026.95L937.963 98.576V206H882.091V4.39999H929.035L1018.03 111.824V4.39999H1073.9ZM191.944 257.4V459H134.92V380.376H57.1596V459H0.135647V257.4H57.1596V333.144H134.92V257.4H191.944ZM345.351 463.032C324.039 463.032 304.839 458.52 287.751 449.496C270.855 440.472 257.511 427.992 247.719 412.056C238.119 396.12 233.319 378.168 233.319 358.2C233.319 338.232 238.119 320.28 247.719 304.344C257.511 288.408 270.855 275.928 287.751 266.904C304.839 257.88 324.039 253.368 345.351 253.368C366.663 253.368 385.767 257.88 402.663 266.904C419.751 275.928 433.095 288.408 442.695 304.344C452.487 320.28 457.383 338.232 457.383 358.2C457.383 378.168 452.487 396.12 442.695 412.056C433.095 427.992 419.751 440.472 402.663 449.496C385.767 458.52 366.663 463.032 345.351 463.032ZM345.351 415.8C355.527 415.8 364.743 413.4 372.999 408.6C381.255 403.8 387.783 397.08 392.583 388.44C397.383 379.608 399.783 369.528 399.783 358.2C399.783 346.872 397.383 336.888 392.583 328.248C387.783 319.416 381.255 312.6 372.999 307.8C364.743 303 355.527 300.6 345.351 300.6C335.175 300.6 325.959 303 317.703 307.8C309.447 312.6 302.919 319.416 298.119 328.248C293.319 336.888 290.919 346.872 290.919 358.2C290.919 369.528 293.319 379.608 298.119 388.44C302.919 397.08 309.447 403.8 317.703 408.6C325.959 413.4 335.175 415.8 345.351 415.8ZM591.793 463.032C561.841 463.032 538.513 454.872 521.809 438.552C505.297 422.232 497.041 399.096 497.041 369.144V257.4H554.065V367.416C554.065 399.672 566.833 415.8 592.369 415.8C617.713 415.8 630.385 399.672 630.385 367.416V257.4H686.545V369.144C686.545 399.096 678.193 422.232 661.489 438.552C644.977 454.872 621.745 463.032 591.793 463.032ZM807.544 463.032C791.224 463.032 775.384 461.016 760.024 456.984C744.664 452.952 732.184 447.576 722.584 440.856L741.304 398.808C750.328 404.76 760.792 409.56 772.696 413.208C784.6 416.856 796.312 418.68 807.832 418.68C829.72 418.68 840.664 413.208 840.664 402.264C840.664 396.504 837.496 392.28 831.16 389.592C825.016 386.712 815.032 383.736 801.208 380.664C786.04 377.4 773.368 373.944 763.192 370.296C753.016 366.456 744.28 360.408 736.984 352.152C729.688 343.896 726.04 332.76 726.04 318.744C726.04 306.456 729.4 295.416 736.12 285.624C742.84 275.64 752.824 267.768 766.072 262.008C779.512 256.248 795.928 253.368 815.32 253.368C828.568 253.368 841.624 254.904 854.488 257.976C867.352 260.856 878.68 265.176 888.472 270.936L870.904 313.272C851.704 302.904 833.08 297.72 815.032 297.72C803.704 297.72 795.448 299.448 790.264 302.904C785.08 306.168 782.488 310.488 782.488 315.864C782.488 321.24 785.56 325.272 791.704 327.96C797.848 330.648 807.736 333.432 821.368 336.312C836.728 339.576 849.4 343.128 859.384 346.968C869.56 350.616 878.296 356.568 885.592 364.824C893.08 372.888 896.824 383.928 896.824 397.944C896.824 410.04 893.464 420.984 886.744 430.776C880.024 440.568 869.944 448.44 856.504 454.392C843.064 460.152 826.744 463.032 807.544 463.032ZM1096.54 414.936V459H934.684V257.4H1092.8V301.464H991.132V335.448H1080.7V378.072H991.132V414.936H1096.54Z" fill="url(#paint0_linear_42_374)"/>
<defs>
<linearGradient id="paint0_linear_42_374" x1="883.59" y1="-10.9529" x2="-101.466" y2="342.826" gradientUnits="userSpaceOnUse">
<stop stop-color="#F2F2F2"/>
<stop offset="1" stop-color="#929891"/>
</linearGradient>
</defs>
</svg>
