<svg width="16" height="14" viewBox="0 0 16 14" fill="none" xmlns="http://www.w3.org/2000/svg">
<path d="M2.07392 2.07675C1.3863 2.76618 1 3.70125 1 4.67626C1 5.65126 1.3863 6.58633 2.07392 7.27576L5.76166 10.9732C5.76699 10.9786 5.77233 10.984 5.77769 10.9894L7.6296 12.8462C7.83415 13.0513 8.1658 13.0513 8.37036 12.8462L13.9261 7.27581C14.6137 6.58638 15 5.65131 15 4.6763C15 3.7013 14.6137 2.76623 13.9261 2.0768C13.2385 1.38736 12.3059 1.00005 11.3334 1.00005C10.361 1.00005 9.42836 1.38737 8.74074 2.0768L8.00002 2.81947L7.25926 2.07675C6.57164 1.38732 5.63903 1 4.66659 1C3.69415 1 2.76154 1.38732 2.07392 2.07675Z" stroke="#01170A" stroke-linecap="round" stroke-linejoin="round"/>
</svg>
