<svg width="15" height="16" viewBox="0 0 15 16" fill="none" xmlns="http://www.w3.org/2000/svg">
<path d="M1.95258 4.70296C1.80899 4.95449 1.68187 5.2176 1.5727 5.49075L1.49478 5.6857C0.835072 7.3363 0.835073 9.19091 1.49478 10.8415C2.15449 12.4921 3.41988 13.8035 5.01256 14.4872C6.60524 15.1709 8.39476 15.1709 9.98744 14.4872C11.5801 13.8035 12.8455 12.4921 13.5052 10.8415C14.1649 9.19091 14.1649 7.3363 13.5052 5.6857C12.8455 4.03509 11.5801 2.72369 9.98744 2.03999C9.70841 1.9202 9.42333 1.82141 9.13432 1.74359M7.25546 1.04273C7.12274 1.09971 7.01729 1.20899 6.96231 1.34654C6.90734 1.48409 6.90734 1.63864 6.96231 1.77619C7.01729 1.91374 7.12274 2.02303 7.25546 2.08C7.38819 2.13698 7.53731 2.13698 7.67003 2.08M7.25546 1.04273C7.38819 0.985756 7.53731 0.985756 7.67003 1.04273C7.80276 1.09971 7.90821 1.20899 7.96318 1.34654C8.01816 1.48409 8.01816 1.63864 7.96318 1.77619C7.90821 1.91374 7.80276 2.02303 7.67003 2.08M7.25546 1.04273L7.67003 2.08M2.52492 3.12161L7.71383 7.6719C7.84102 7.78344 7.91438 7.94736 7.91438 8.12003C7.91438 8.26459 7.86397 8.39693 7.78037 8.49923M2.52492 3.12161L6.91554 8.49923C7.02316 8.63105 7.18133 8.70707 7.34794 8.70707C7.5213 8.70707 7.67647 8.62636 7.78037 8.49923M2.52492 3.12161L7.78037 8.49923" stroke="#01170A" stroke-linecap="round" stroke-linejoin="round"/>
</svg>
